<?xml version="1.0" encoding="UTF-8" standalone="no"?>
<!DOCTYPE svg PUBLIC "-//W3C//DTD SVG 1.1//EN"
 "http://www.w3.org/Graphics/SVG/1.1/DTD/svg11.dtd">
<!-- Generated by graphviz version 12.2.1 (20241206.2353)
 -->
<!-- Title: G Pages: 1 -->
<svg width="174pt" height="130pt"
 viewBox="0.00 0.00 173.63 130.27" xmlns="http://www.w3.org/2000/svg" xmlns:xlink="http://www.w3.org/1999/xlink">
<g id="graph0" class="graph" transform="scale(1 1) rotate(0) translate(4 126.27)">
<title>G</title><style>.edge>path:hover{stroke-width:8}</style>
<polygon fill="white" stroke="none" points="-4,4 -4,-126.27 169.63,-126.27 169.63,4 -4,4"/>
<!-- package1_moduleA -->
<g id="node1" class="node">
<title>package1_moduleA</title><style>.edge>path:hover{stroke-width:8}</style>
<ellipse fill="#c24747" stroke="black" cx="43.13" cy="-100.7" rx="43.13" ry="21.57"/>
<text text-anchor="middle" x="43.13" y="-102.45" font-family="Helvetica,sans-Serif" font-size="10.00" fill="#ffffff">package1.</text>
<text text-anchor="middle" x="43.13" y="-91.2" font-family="Helvetica,sans-Serif" font-size="10.00" fill="#ffffff">moduleA</text>
</g>
<!-- package1_moduleB -->
<g id="node2" class="node">
<title>package1_moduleB</title><style>.edge>path:hover{stroke-width:8}</style>
<ellipse fill="#b34c4c" stroke="black" cx="43.13" cy="-21.57" rx="43.13" ry="21.57"/>
<text text-anchor="middle" x="43.13" y="-23.32" font-family="Helvetica,sans-Serif" font-size="10.00" fill="#ffffff">package1.</text>
<text text-anchor="middle" x="43.13" y="-12.07" font-family="Helvetica,sans-Serif" font-size="10.00" fill="#ffffff">moduleB</text>
</g>
<!-- package1_moduleA&#45;&gt;package1_moduleB -->
<g id="edge1" class="edge">
<title>package1_moduleA&#45;&gt;package1_moduleB</title><style>.edge>path:hover{stroke-width:8}</style>
<path fill="none" stroke="black" d="M43.13,-79.03C43.13,-71.65 43.13,-63.16 43.13,-55.03"/>
<polygon fill="#c24747" stroke="black" points="46.63,-55.08 43.13,-45.08 39.63,-55.08 46.63,-55.08"/>
</g>
<!-- package1_moduleC -->
<g id="node3" class="node">
<title>package1_moduleC</title><style>.edge>path:hover{stroke-width:8}</style>
<polygon fill="blue" stroke="black" points="165.63,-118.7 104.63,-118.7 104.63,-82.7 165.63,-82.7 165.63,-118.7"/>
<text text-anchor="middle" x="135.13" y="-102.45" font-family="Helvetica,sans-Serif" font-size="10.00" fill="white">package1.</text>
<text text-anchor="middle" x="135.13" y="-91.2" font-family="Helvetica,sans-Serif" font-size="10.00" fill="white">moduleC</text>
</g>
<!-- package1_moduleD -->
<g id="node4" class="node">
<title>package1_moduleD</title><style>.edge>path:hover{stroke-width:8}</style>
<polygon fill="blue" stroke="black" points="165.63,-39.57 104.63,-39.57 104.63,-3.57 165.63,-3.57 165.63,-39.57"/>
<text text-anchor="middle" x="135.13" y="-23.32" font-family="Helvetica,sans-Serif" font-size="10.00" fill="white">package1.</text>
<text text-anchor="middle" x="135.13" y="-12.07" font-family="Helvetica,sans-Serif" font-size="10.00" fill="white">moduleD</text>
</g>
<!-- package1_moduleC&#45;&gt;package1_moduleD -->
<g id="edge2" class="edge">
<title>package1_moduleC&#45;&gt;package1_moduleD</title><style>.edge>path:hover{stroke-width:8}</style>
<path fill="none" stroke="black" d="M135.13,-71.33C135.13,-64.75 135.13,-57.73 135.13,-51.14"/>
<polygon fill="blue" stroke="black" points="131.63,-71.07 135.13,-81.07 138.63,-71.07 131.63,-71.07"/>
<polygon fill="blue" stroke="black" points="138.63,-51.42 135.13,-41.42 131.63,-51.42 138.63,-51.42"/>
</g>
</g>
</svg>
